<svg id="Layer_1" data-name="Layer 1" xmlns="http://www.w3.org/2000/svg" viewBox="0 0 180.32 33.17"><defs><style>.cls-1{fill:#cb2127;}.cls-2{fill:none;stroke:#cb2127;stroke-miterlimit:10;stroke-width:0.75px;}</style></defs><title>logored</title><path class="cls-1" d="M-20.19,74.52c-.62,0-.94-.51-.71-1.14l3.51-9.8s0,0,0-.08l.92-2.57h0l.41-1.14h-5.06l-5.29,14.72c-.45,1.26.19,2.28,1.43,2.28h5l.81-2.27Z" transform="translate(57.91 -58.59)"/><path class="cls-1" d="M-29.6,73.38l3.51-9.8s0,0,0-.08l.93-2.57h0l.41-1.14h-5.06l-5.29,14.72c-.45,1.26.19,2.28,1.43,2.28h5l.81-2.27h-1.08c-.62,0-.94-.51-.71-1.14" transform="translate(57.91 -58.59)"/><path class="cls-1" d="M9.83,66.15h7.4l1.08-3H7.54a3.57,3.57,0,0,0-3.07,2.27L3.34,68.71A1.54,1.54,0,0,0,4.74,71h6.82c.62,0,.94.51.72,1.14L12,73a1.8,1.8,0,0,1-1.53,1.13H1.33L.38,76.79H13.45a3.53,3.53,0,0,0,3.06-2.27,13.18,13.18,0,0,0,.81-3,2.91,2.91,0,0,0-3.16-3H9A.39.39,0,0,1,8.65,68v0l.46-1.39a.89.89,0,0,1,.73-.49" transform="translate(57.91 -58.59)"/><polygon class="cls-1" points="147.86 1.21 142.79 1.21 141.88 3.76 146.94 3.76 147.86 1.21"/><polygon class="cls-1" points="141.59 4.56 136.68 18.2 141.74 18.2 146.65 4.56 141.59 4.56"/><path class="cls-1" d="M53.41,58.59H49.76a2.22,2.22,0,0,0-2,.84l-9.14,9.75-2-9.75c-.11-.74-.6-.84-1.48-.84H31.68l-6.54,18.2h5.05l2.86-8,1.83,8h2.23l7.75-8-2.89,8h4.91l6.55-18.2Z" transform="translate(57.91 -58.59)"/><path class="cls-1" d="M119.26,63.13h-9a3.55,3.55,0,0,0-3.07,2.28l-3.28,9.1c-.45,1.26.19,2.28,1.43,2.28h13.59l1-2.66H110.2c-.62,0-.94-.51-.72-1.14l2.06-5.72a1.79,1.79,0,0,1,1.54-1.14h3.38c.62,0,.94.51.72,1.14l-.43,1.24H112L111.17,71H121l1.17-3.29h0c.91-2.51-.37-4.55-2.86-4.55" transform="translate(57.91 -58.59)"/><path class="cls-1" d="M82.25,63.15H78.57a5.7,5.7,0,0,0-2.92,1.14l.41-1.14H71L66.09,76.79h5.06l3.43-9.51a1.78,1.78,0,0,1,1.53-1.14h5.07Z" transform="translate(57.91 -58.59)"/><path class="cls-1" d="M67.35,63.15H53.19l-1.09,3H62.32c.62,0,.94.51.72,1.14L61,73a1.78,1.78,0,0,1-1.53,1.14h-4c-.62,0-.94-.5-.72-1.13L55,72.1A1.78,1.78,0,0,1,56.57,71h4.19l.9-2.46H53.5a3.59,3.59,0,0,0-3.07,2.3l-1.31,3.69c-.45,1.26.19,2.28,1.43,2.28h6.56A5.73,5.73,0,0,0,60,75.65l-.41,1.14h5.06l4.09-11.37a1.53,1.53,0,0,0-1.43-2.27" transform="translate(57.91 -58.59)"/><path class="cls-1" d="M104.31,63.15H97.72a5.76,5.76,0,0,0-2.93,1.13l.41-1.13H90.14L85.23,76.78h5.06l3-8.26.45-1.25a1.81,1.81,0,0,1,1.46-1.13h4.09a.77.77,0,0,1,.72,1.14L98,73s0,0,0,.06l-1.35,3.73h5.06l4.1-11.37c.45-1.26-.19-2.27-1.43-2.27" transform="translate(57.91 -58.59)"/><polygon class="cls-1" points="26.73 1.21 21.67 1.21 20.75 3.76 25.81 3.76 26.73 1.21"/><polygon class="cls-1" points="20.46 4.56 15.55 18.2 20.61 18.2 25.52 4.56 20.46 4.56"/><polygon class="cls-1" points="67.43 0 62.94 0 61.58 3.76 63.71 3.76 67.43 0"/><path class="cls-1" d="M-.2,63.15H-2.3l-3,8.26-.45,1.25a1.81,1.81,0,0,1-1.46,1.13h-4.09c-.62,0-.94-.51-.72-1.14l2-5.72,0-.06,1.34-3.72h-5.06l-4.09,11.36c-.45,1.26.19,2.28,1.43,2.28h6.59A5.7,5.7,0,0,0-6.8,75.65l-.81,2.68-.31.73a1.94,1.94,0,0,1-1.6,1.13h-9l-1.1,2.65H-6.57a3.81,3.81,0,0,0,3.2-2.28.77.77,0,0,0,.07-.16L2.76,63.15Z" transform="translate(57.91 -58.59)"/><polygon class="cls-1" points="19.43 2.99 20.5 0 13.83 0 8.77 0 1.07 0 0 2.99 7.69 2.99 2.22 18.2 7.28 18.2 12.76 2.99 19.43 2.99"/><polygon class="cls-1" points="159.84 26.57 157.88 26.57 157.52 27.56 159.48 27.56 159.84 26.57"/><polygon class="cls-1" points="157.41 27.87 155.5 33.17 157.47 33.17 159.37 27.87 157.41 27.87"/><path class="cls-1" d="M87.74,84.69H86.33a.87.87,0,0,0-.8.33L82,88.8,81.19,85c0-.29-.23-.33-.57-.33H79.31l-2.54,7.07h2l1.11-3.09.71,3.09h.86l3-3.11L83.3,91.76h1.91l2.54-7.07Z" transform="translate(57.91 -58.59)"/><path class="cls-1" d="M113.31,86.46H109.8a1.38,1.38,0,0,0-1.19.88l-1.27,3.53c-.18.49.07.89.55.89h5.28l.37-1H109.8c-.25,0-.37-.2-.28-.45l.8-2.22a.69.69,0,0,1,.59-.44h1.32c.24,0,.36.2.28.44l-.17.48h-1.83l-.34,1H114l.46-1.28h0a1.19,1.19,0,0,0-1.12-1.76" transform="translate(57.91 -58.59)"/><path class="cls-1" d="M98.94,86.46H97.52a2.23,2.23,0,0,0-1.14.45l.16-.45h-2l-1.9,5.3h2L96,88.07a.69.69,0,0,1,.6-.44h2Z" transform="translate(57.91 -58.59)"/><path class="cls-1" d="M93.16,86.46h-5.5l-.43,1.17h4c.25,0,.37.19.28.44l-.79,2.22a.69.69,0,0,1-.59.44H88.53a.3.3,0,0,1-.27-.44l.12-.35A.69.69,0,0,1,89,89.5H90.6l.35-1H87.78a1.38,1.38,0,0,0-1.19.89l-.51,1.44a.59.59,0,0,0,.55.88h2.55a2.23,2.23,0,0,0,1.14-.44l-.16.44h2l1.59-4.42a.59.59,0,0,0-.55-.88" transform="translate(57.91 -58.59)"/><path class="cls-1" d="M107.51,86.46H105a2.23,2.23,0,0,0-1.14.44l.16-.44h-2l-1.91,5.3h2l1.16-3.21.18-.49a.67.67,0,0,1,.56-.43h1.59a.3.3,0,0,1,.28.44L105,90.29v0l-.52,1.45h2l1.59-4.42a.59.59,0,0,0-.55-.88" transform="translate(57.91 -58.59)"/><path class="cls-1" d="M70.25,90.44l1.36-3.81,0,0,.36-1,.16-.44h-2l-2.05,5.72a.59.59,0,0,0,.55.88h1.95l.32-.88h-.42a.3.3,0,0,1-.28-.44" transform="translate(57.91 -58.59)"/><path class="cls-1" d="M68.3,86.46H62.8l-.43,1.17h4c.24,0,.36.19.27.44l-.79,2.22a.68.68,0,0,1-.59.44H63.68a.3.3,0,0,1-.28-.44l.12-.35a.69.69,0,0,1,.59-.44h1.63l.35-1H62.92a1.38,1.38,0,0,0-1.19.89l-.51,1.44a.59.59,0,0,0,.55.88h2.55a2.23,2.23,0,0,0,1.14-.44l-.16.44h2l1.59-4.42a.6.6,0,0,0-.56-.88" transform="translate(57.91 -58.59)"/><polygon class="cls-1" points="133.42 26.57 131.46 26.57 131.1 27.56 133.07 27.56 133.42 26.57"/><polygon class="cls-1" points="130.99 27.87 129.08 33.17 131.05 33.17 132.96 27.87 130.99 27.87"/><path class="cls-1" d="M61.14,84.69H56.59a1.38,1.38,0,0,0-1.19.88l-1.91,5.3c-.18.49.07.89.55.89h6.31l.37-1H56.15a.44.44,0,0,1-.44-.55l.64-1.76h0l.36-1,.24-.67a.68.68,0,0,1,.59-.44h2.37a.3.3,0,0,1,.28.44l-.32.88h2l.41-1.16h0a1.2,1.2,0,0,0-1.12-1.77" transform="translate(57.91 -58.59)"/><line class="cls-2" x1="56.61" y1="22.15" x2="175.18" y2="22.15"/></svg>