<svg id="Layer_1" data-name="Layer 1" xmlns="http://www.w3.org/2000/svg" viewBox="0 0 180.32 33.17"><defs><style>.cls-1{fill:#010101;}.cls-2{fill:none;stroke:#010101;stroke-miterlimit:10;stroke-width:0.75px;}</style></defs><title>logoblack</title><path class="cls-1" d="M-9.21,34.6c-.63,0-.94-.51-.72-1.14l3.51-9.8s0-.05,0-.08L-5.45,21h0L-5,19.87H-10.1l-5.3,14.72c-.45,1.26.19,2.28,1.43,2.28h5l.81-2.27Z" transform="translate(46.94 -18.67)"/><path class="cls-1" d="M-18.63,33.46l3.51-9.8s0-.05,0-.08l.93-2.57h0l.41-1.14H-18.8l-5.3,14.72a1.54,1.54,0,0,0,1.44,2.28h5l.81-2.27h-1.07c-.62,0-.94-.51-.72-1.14" transform="translate(46.94 -18.67)"/><path class="cls-1" d="M20.8,26.23h7.4l1.09-3H18.51a3.58,3.58,0,0,0-3.07,2.27l-1.13,3.29a1.54,1.54,0,0,0,1.41,2.27h6.82c.62,0,.94.51.71,1.14l-.33.89a1.79,1.79,0,0,1-1.53,1.13H12.31l-1,2.65H24.42a3.55,3.55,0,0,0,3.07-2.27,13.56,13.56,0,0,0,.8-3,2.9,2.9,0,0,0-3.15-3H20a.38.38,0,0,1-.35-.57l0,.05.46-1.39a.89.89,0,0,1,.73-.49" transform="translate(46.94 -18.67)"/><polygon class="cls-1" points="147.86 1.21 142.79 1.21 141.88 3.76 146.94 3.76 147.86 1.21"/><polygon class="cls-1" points="141.59 4.56 136.68 18.2 141.74 18.2 146.65 4.56 141.59 4.56"/><path class="cls-1" d="M64.38,18.67H60.73a2.23,2.23,0,0,0-2,.84l-9.13,9.75-2-9.75c-.11-.74-.6-.84-1.48-.84H42.65l-6.54,18.2h5l2.87-8,1.82,8h2.23l7.75-8-2.88,8h4.9l6.55-18.2Z" transform="translate(46.94 -18.67)"/><path class="cls-1" d="M130.23,23.21h-9a3.56,3.56,0,0,0-3.07,2.28l-3.28,9.1c-.45,1.26.19,2.28,1.43,2.28h13.59l1-2.66h-9.65c-.62,0-.94-.51-.71-1.14l2.06-5.72a1.77,1.77,0,0,1,1.53-1.14h3.38a.77.77,0,0,1,.72,1.14l-.43,1.24H123l-.86,2.46h9.78l1.17-3.29c.91-2.51-.37-4.55-2.86-4.55" transform="translate(46.94 -18.67)"/><path class="cls-1" d="M93.22,23.23H89.55a5.7,5.7,0,0,0-2.93,1.14L87,23.23H82L77.06,36.87h5.06l3.43-9.51a1.79,1.79,0,0,1,1.54-1.14h5.06Z" transform="translate(46.94 -18.67)"/><path class="cls-1" d="M78.33,23.23H64.16l-1.09,3H73.29A.77.77,0,0,1,74,27.36l-2,5.72a1.77,1.77,0,0,1-1.53,1.14h-4c-.62,0-.94-.5-.72-1.13l.31-.91a1.8,1.8,0,0,1,1.53-1.12h4.19l.9-2.46H64.48a3.59,3.59,0,0,0-3.08,2.3l-1.31,3.69c-.45,1.26.19,2.28,1.43,2.28h6.56A5.7,5.7,0,0,0,71,35.73l-.41,1.14h5.06l4.1-11.37c.45-1.26-.19-2.27-1.43-2.27" transform="translate(46.94 -18.67)"/><path class="cls-1" d="M115.28,23.23h-6.59a5.79,5.79,0,0,0-2.93,1.13l.41-1.13h-5.06l-4.9,13.63h5.05l3-8.26.45-1.25a1.78,1.78,0,0,1,1.45-1.13h4.1c.62,0,.94.51.71,1.14l-2,5.72,0,.06-1.34,3.73h5.06l4.09-11.37c.45-1.26-.19-2.27-1.43-2.27" transform="translate(46.94 -18.67)"/><polygon class="cls-1" points="26.73 1.21 21.67 1.21 20.75 3.76 25.81 3.76 26.73 1.21"/><polygon class="cls-1" points="20.46 4.56 15.55 18.2 20.61 18.2 25.52 4.56 20.46 4.56"/><polygon class="cls-1" points="67.43 0 62.94 0 61.58 3.76 63.71 3.76 67.43 0"/><path class="cls-1" d="M10.78,23.23H8.68l-3,8.26-.45,1.25a1.78,1.78,0,0,1-1.45,1.13H-.31c-.62,0-.94-.51-.71-1.14L1,27,1,27l1.34-3.72H-2.68L-6.77,34.59c-.45,1.26.19,2.28,1.43,2.28H1.25a5.67,5.67,0,0,0,2.92-1.14l-.81,2.68-.31.73a1.94,1.94,0,0,1-1.6,1.13h-9l-1.1,2.65H4.41A3.81,3.81,0,0,0,7.6,40.65a1.22,1.22,0,0,0,.07-.17l6.06-17.25Z" transform="translate(46.94 -18.67)"/><polygon class="cls-1" points="19.43 2.99 20.5 0 13.83 0 8.77 0 1.07 0 0 2.99 7.69 2.99 2.22 18.2 7.28 18.2 12.76 2.99 19.43 2.99"/><polygon class="cls-1" points="159.84 26.57 157.88 26.57 157.52 27.56 159.48 27.56 159.84 26.57"/><polygon class="cls-1" points="157.41 27.88 155.5 33.17 157.47 33.17 159.37 27.88 157.41 27.88"/><path class="cls-1" d="M98.72,44.77H97.3a.88.88,0,0,0-.8.33L93,48.88l-.79-3.78c0-.29-.24-.33-.58-.33H90.28l-2.54,7.07h2l1.11-3.09.71,3.09h.87l3-3.11-1.12,3.11h1.9l2.55-7.07Z" transform="translate(46.94 -18.67)"/><path class="cls-1" d="M124.29,46.54h-3.52a1.38,1.38,0,0,0-1.19.88L118.31,51a.6.6,0,0,0,.56.89h5.27l.37-1h-3.74a.3.3,0,0,1-.28-.45l.8-2.22a.69.69,0,0,1,.6-.44h1.31a.3.3,0,0,1,.28.44l-.17.48h-1.83l-.34,1h3.8l.46-1.28h0a1.19,1.19,0,0,0-1.11-1.76" transform="translate(46.94 -18.67)"/><path class="cls-1" d="M109.91,46.55h-1.42a2.23,2.23,0,0,0-1.14.44l.16-.44h-2l-1.91,5.29h2l1.34-3.69a.68.68,0,0,1,.59-.44h2Z" transform="translate(46.94 -18.67)"/><path class="cls-1" d="M104.13,46.54h-5.5l-.42,1.17h4c.24,0,.36.19.27.44l-.79,2.22a.68.68,0,0,1-.59.44H99.51a.3.3,0,0,1-.28-.44l.12-.35a.69.69,0,0,1,.59-.44h1.63l.35-.95H98.75a1.38,1.38,0,0,0-1.19.89L97.05,51a.59.59,0,0,0,.56.88h2.54a2.23,2.23,0,0,0,1.14-.44l-.16.44h2l1.59-4.41c.17-.49-.08-.89-.56-.89" transform="translate(46.94 -18.67)"/><path class="cls-1" d="M118.48,46.54h-2.56a2.23,2.23,0,0,0-1.14.44l.16-.44h-2l-1.91,5.3h2l1.16-3.21.17-.49a.68.68,0,0,1,.57-.43h1.59c.24,0,.36.19.27.44L116,50.37v0l-.52,1.45h2L119,47.43c.17-.49-.08-.89-.56-.89" transform="translate(46.94 -18.67)"/><path class="cls-1" d="M81.22,50.52l1.37-3.81v0l.36-1h0l.16-.44h-2L79.1,51a.59.59,0,0,0,.56.88H81.6l.32-.88H81.5c-.24,0-.36-.2-.28-.44" transform="translate(46.94 -18.67)"/><path class="cls-1" d="M79.27,46.54h-5.5l-.42,1.17h4c.24,0,.36.19.28.44l-.8,2.22a.68.68,0,0,1-.59.44H74.65a.3.3,0,0,1-.28-.44l.12-.35a.71.71,0,0,1,.59-.44h1.63l.35-.95H73.89a1.38,1.38,0,0,0-1.19.89L72.19,51a.6.6,0,0,0,.56.88h2.54a2.23,2.23,0,0,0,1.14-.44l-.16.44h2l1.59-4.41c.17-.49-.08-.89-.56-.89" transform="translate(46.94 -18.67)"/><polygon class="cls-1" points="133.42 26.57 131.46 26.57 131.1 27.56 133.07 27.56 133.42 26.57"/><polygon class="cls-1" points="130.99 27.88 129.08 33.17 131.05 33.17 132.96 27.88 130.99 27.88"/><path class="cls-1" d="M72.12,44.77H67.56a1.38,1.38,0,0,0-1.19.89L64.46,51a.59.59,0,0,0,.56.88h6.3l.38-1H67.12a.44.44,0,0,1-.43-.56l.63-1.76h0l.36-1,.24-.67a.69.69,0,0,1,.59-.44h2.38c.24,0,.36.2.27.44l-.31.89h2l.42-1.17h0c.35-1-.15-1.77-1.11-1.77" transform="translate(46.94 -18.67)"/><line class="cls-2" x1="56.61" y1="22.15" x2="175.18" y2="22.15"/></svg>